<svg width="24" height="24" viewBox="0 0 24 24" fill="none" xmlns="http://www.w3.org/2000/svg">
<path fill-rule="evenodd" clip-rule="evenodd" d="M21 12C21 12.4142 20.6642 12.75 20.25 12.75H5.56032L11.0306 18.2194C11.3237 18.5124 11.3237 18.9876 11.0306 19.2806C10.7376 19.5737 10.2624 19.5737 9.96939 19.2806L3.21939 12.5306C3.07855 12.39 2.99942 12.1991 2.99942 12C2.99942 11.8009 3.07855 11.6101 3.21939 11.4694L9.96939 4.71938C10.2624 4.42632 10.7376 4.42632 11.0306 4.71938C11.3237 5.01243 11.3237 5.48757 11.0306 5.78063L5.56032 11.25H20.25C20.6642 11.25 21 11.5858 21 12Z" fill="white"/>
</svg>
