<svg width="20" height="21" viewBox="0 0 20 21" fill="none" xmlns="http://www.w3.org/2000/svg">
<path fill-rule="evenodd" clip-rule="evenodd" d="M19 9.83281V18.5C19 19.3284 18.3284 20 17.5 20H13.75C12.9216 20 12.25 19.3284 12.25 18.5V14.75C12.25 14.3358 11.9142 14 11.5 14H8.5C8.08579 14 7.75 14.3358 7.75 14.75V18.5C7.75 19.3284 7.07843 20 6.25 20H2.5C1.67157 20 1 19.3284 1 18.5V9.83281C0.999936 9.41309 1.17573 9.01254 1.48469 8.72844L8.98469 1.65219L8.995 1.64188C9.56719 1.1215 10.4412 1.1215 11.0134 1.64188C11.0166 1.64554 11.0201 1.64899 11.0238 1.65219L18.5238 8.72844C18.8296 9.01402 19.0022 9.41437 19 9.83281V9.83281Z" fill="#563124" stroke="#563124" stroke-width="2"/>
</svg>
