<svg width="23" height="19" viewBox="0 0 23 19" fill="none" xmlns="http://www.w3.org/2000/svg">
<path fill-rule="evenodd" clip-rule="evenodd" d="M21.625 2V14C21.625 14.8284 20.9534 15.5 20.125 15.5H14.125C12.8824 15.5 11.875 16.5074 11.875 17.75C11.875 18.1642 11.5392 18.5 11.125 18.5C10.7108 18.5 10.375 18.1642 10.375 17.75C10.375 16.5074 9.36764 15.5 8.125 15.5H2.125C1.29657 15.5 0.625 14.8284 0.625 14V2C0.625 1.17157 1.29657 0.5 2.125 0.5H7.375C9.03185 0.5 10.375 1.84315 10.375 3.5V11.75C10.375 12.1642 10.7108 12.5 11.125 12.5C11.5392 12.5 11.875 12.1642 11.875 11.75V3.5C11.875 1.84315 13.2181 0.5 14.875 0.5H20.125C20.9534 0.5 21.625 1.17157 21.625 2Z" fill="#563124" stroke="#563124"/>
</svg>
