<svg width="22" height="21" viewBox="0 0 22 21" fill="none" xmlns="http://www.w3.org/2000/svg">
<path fill-rule="evenodd" clip-rule="evenodd" d="M20.6488 18.875C19.2209 16.4066 17.0206 14.6366 14.4528 13.7975C17.0635 12.2433 18.3142 9.13638 17.5082 6.2069C16.7022 3.27741 14.0383 1.24745 11 1.24745C7.96167 1.24745 5.29779 3.27741 4.49182 6.2069C3.68585 9.13638 4.93645 12.2433 7.54719 13.7975C4.97938 14.6356 2.77906 16.4056 1.35125 18.875C1.2087 19.1074 1.20353 19.3989 1.33773 19.6363C1.47194 19.8736 1.72438 20.0194 1.99702 20.0171C2.26967 20.0147 2.51957 19.8646 2.64969 19.625C4.41594 16.5725 7.53781 14.75 11 14.75C14.4622 14.75 17.5841 16.5725 19.3503 19.625C19.4804 19.8646 19.7303 20.0147 20.003 20.0171C20.2756 20.0194 20.5281 19.8736 20.6623 19.6363C20.7965 19.3989 20.7913 19.1074 20.6488 18.875V18.875ZM5.75 8C5.75 5.10051 8.10051 2.75 11 2.75C13.8995 2.75 16.25 5.10051 16.25 8C16.25 10.8995 13.8995 13.25 11 13.25C8.10179 13.2469 5.7531 10.8982 5.75 8V8Z" fill="#563124" stroke="#563124"/>
</svg>
