<svg width="24" height="21" viewBox="0 0 24 21" fill="none" xmlns="http://www.w3.org/2000/svg">
<path fill-rule="evenodd" clip-rule="evenodd" d="M22.625 3V15C22.625 15.8284 21.9534 16.5 21.125 16.5H15.125C13.8824 16.5 12.875 17.5074 12.875 18.75C12.875 19.1642 12.5392 19.5 12.125 19.5C11.7108 19.5 11.375 19.1642 11.375 18.75C11.375 17.5074 10.3676 16.5 9.125 16.5H3.125C2.29657 16.5 1.625 15.8284 1.625 15V3C1.625 2.17157 2.29657 1.5 3.125 1.5H8.375C10.0319 1.5 11.375 2.84315 11.375 4.5V12.75C11.375 13.1642 11.7108 13.5 12.125 13.5C12.5392 13.5 12.875 13.1642 12.875 12.75V4.5C12.875 2.84315 14.2181 1.5 15.875 1.5H21.125C21.9534 1.5 22.625 2.17157 22.625 3V3Z" stroke="#999999" stroke-width="2"/>
<path fill-rule="evenodd" clip-rule="evenodd" d="M22.625 3V15C22.625 15.8284 21.9534 16.5 21.125 16.5H15.125C13.8824 16.5 12.875 17.5074 12.875 18.75C12.875 19.1642 12.5392 19.5 12.125 19.5C11.7108 19.5 11.375 19.1642 11.375 18.75C11.375 17.5074 10.3676 16.5 9.125 16.5H3.125C2.29657 16.5 1.625 15.8284 1.625 15V3C1.625 2.17157 2.29657 1.5 3.125 1.5H8.375C10.0319 1.5 11.375 2.84315 11.375 4.5V12.75C11.375 13.1642 11.7108 13.5 12.125 13.5C12.5392 13.5 12.875 13.1642 12.875 12.75V4.5C12.875 2.84315 14.2181 1.5 15.875 1.5H21.125C21.9534 1.5 22.625 2.17157 22.625 3V3Z" stroke="black" stroke-opacity="0.2" stroke-width="2"/>
</svg>
