<svg width="20" height="20" viewBox="0 0 20 20" fill="none" xmlns="http://www.w3.org/2000/svg">
<path fill-rule="evenodd" clip-rule="evenodd" d="M19.7738 17.875C18.3459 15.4066 16.1456 13.6366 13.5778 12.7975C16.1885 11.2433 17.4391 8.13638 16.6332 5.2069C15.8272 2.27741 13.1633 0.247449 10.125 0.247449C7.08667 0.247449 4.42279 2.27741 3.61682 5.2069C2.81085 8.13638 4.06145 11.2433 6.67219 12.7975C4.10438 13.6356 1.90406 15.4056 0.47625 17.875C0.333704 18.1074 0.328527 18.3989 0.462731 18.6363C0.596935 18.8736 0.849375 19.0194 1.12202 19.0171C1.39467 19.0147 1.64458 18.8646 1.77469 18.625C3.54094 15.5725 6.66281 13.75 10.125 13.75C13.5872 13.75 16.7091 15.5725 18.4753 18.625C18.6054 18.8646 18.8553 19.0147 19.128 19.0171C19.4006 19.0194 19.6531 18.8736 19.7873 18.6363C19.9215 18.3989 19.9163 18.1074 19.7738 17.875ZM4.875 7C4.875 4.1005 7.2255 1.75 10.125 1.75C13.0245 1.75 15.375 4.1005 15.375 7C15.375 9.8995 13.0245 12.25 10.125 12.25C7.22679 12.2469 4.8781 9.89821 4.875 7Z" fill="#999999"/>
<path fill-rule="evenodd" clip-rule="evenodd" d="M19.7738 17.875C18.3459 15.4066 16.1456 13.6366 13.5778 12.7975C16.1885 11.2433 17.4391 8.13638 16.6332 5.2069C15.8272 2.27741 13.1633 0.247449 10.125 0.247449C7.08667 0.247449 4.42279 2.27741 3.61682 5.2069C2.81085 8.13638 4.06145 11.2433 6.67219 12.7975C4.10438 13.6356 1.90406 15.4056 0.47625 17.875C0.333704 18.1074 0.328527 18.3989 0.462731 18.6363C0.596935 18.8736 0.849375 19.0194 1.12202 19.0171C1.39467 19.0147 1.64458 18.8646 1.77469 18.625C3.54094 15.5725 6.66281 13.75 10.125 13.75C13.5872 13.75 16.7091 15.5725 18.4753 18.625C18.6054 18.8646 18.8553 19.0147 19.128 19.0171C19.4006 19.0194 19.6531 18.8736 19.7873 18.6363C19.9215 18.3989 19.9163 18.1074 19.7738 17.875ZM4.875 7C4.875 4.1005 7.2255 1.75 10.125 1.75C13.0245 1.75 15.375 4.1005 15.375 7C15.375 9.8995 13.0245 12.25 10.125 12.25C7.22679 12.2469 4.8781 9.89821 4.875 7Z" fill="black" fill-opacity="0.2"/>
</svg>
