<svg width="21" height="21" viewBox="0 0 21 21" fill="none" xmlns="http://www.w3.org/2000/svg">
<path fill-rule="evenodd" clip-rule="evenodd" d="M19.7083 9.83281V18.5C19.7083 19.3284 19.0367 20 18.2083 20H14.4583C13.6299 20 12.9583 19.3284 12.9583 18.5V14.75C12.9583 14.3358 12.6225 14 12.2083 14H9.20831C8.7941 14 8.45831 14.3358 8.45831 14.75V18.5C8.45831 19.3284 7.78674 20 6.95831 20H3.20831C2.37989 20 1.70831 19.3284 1.70831 18.5V9.83281C1.70825 9.41309 1.88404 9.01254 2.193 8.72844L9.693 1.65219L9.70331 1.64188C10.2755 1.1215 11.1496 1.1215 11.7218 1.64188C11.7249 1.64554 11.7284 1.64899 11.7321 1.65219L19.2321 8.72844C19.5379 9.01402 19.7106 9.41437 19.7083 9.83281V9.83281Z" stroke="#999999" stroke-width="2"/>
<path fill-rule="evenodd" clip-rule="evenodd" d="M19.7083 9.83281V18.5C19.7083 19.3284 19.0367 20 18.2083 20H14.4583C13.6299 20 12.9583 19.3284 12.9583 18.5V14.75C12.9583 14.3358 12.6225 14 12.2083 14H9.20831C8.7941 14 8.45831 14.3358 8.45831 14.75V18.5C8.45831 19.3284 7.78674 20 6.95831 20H3.20831C2.37989 20 1.70831 19.3284 1.70831 18.5V9.83281C1.70825 9.41309 1.88404 9.01254 2.193 8.72844L9.693 1.65219L9.70331 1.64188C10.2755 1.1215 11.1496 1.1215 11.7218 1.64188C11.7249 1.64554 11.7284 1.64899 11.7321 1.65219L19.2321 8.72844C19.5379 9.01402 19.7106 9.41437 19.7083 9.83281V9.83281Z" stroke="black" stroke-opacity="0.2" stroke-width="2"/>
</svg>
