<svg width="92" height="93" viewBox="0 0 92 93" fill="none" xmlns="http://www.w3.org/2000/svg">
<rect x="2" y="2.375" width="88" height="88" rx="14" fill="#F7F4F4"/>
<rect x="2" y="2.375" width="88" height="88" rx="14" stroke="#563124" stroke-width="4"/>
<g clip-path="url(#clip0_451_176)">
<path d="M62.5888 25.375C61.6818 25.375 60.7642 25.4435 59.8571 25.5771C53.3226 26.5424 48.4932 30.3744 46.0428 34.2691C46.0229 34.3005 45.9783 34.3005 45.9584 34.2691C43.508 30.3744 38.6786 26.5424 32.1429 25.5771C31.2358 25.4435 30.3182 25.375 29.4112 25.375C22.2673 25.375 16 29.6891 16 34.6071V58.1985C16 60.819 18.1434 62.9447 20.7872 62.9447C21.1997 62.9447 21.6075 62.8901 22.0025 62.7867C22.3986 62.6833 22.7806 62.53 23.1415 62.3302C24.6838 61.4788 26.6373 60.8945 28.8358 60.8945C29.7229 60.8945 30.6206 60.9933 31.503 61.1849C33.2023 61.5543 34.857 62.1548 36.4004 62.9447C38.0434 63.7857 39.5575 64.845 40.8595 66.0751C40.9591 66.1692 41.0575 66.2644 41.1536 66.3597C42.4415 67.6386 44.1771 68.375 45.9994 68.375C47.8217 68.375 49.5585 67.6386 50.8452 66.3597C50.9413 66.2644 51.0397 66.1692 51.1394 66.0751C52.4425 64.8427 53.9566 63.7857 55.6008 62.9447C57.143 62.1537 58.7965 61.5543 60.4958 61.1849C61.3782 60.9933 62.2759 60.8945 63.163 60.8945C65.3275 60.8945 67.2541 61.4602 68.7835 62.2907C69.4655 62.6601 70.2132 62.9063 70.9901 62.94C72.4011 63.0028 73.6832 62.4626 74.5972 61.5543C75.4644 60.6971 76 59.5099 76 58.1985V34.6071C76 29.6879 69.7327 25.375 62.5876 25.375H62.5888ZM44.2357 62.3093C44.2357 62.3546 44.1795 62.3778 44.1478 62.3442C43.8783 62.0572 43.5923 61.7715 43.2958 61.4904C40.3087 58.6678 36.3922 56.6165 32.2624 55.7151C31.1315 55.4688 29.9796 55.3422 28.837 55.3422C25.5709 55.3422 22.4009 56.3586 19.9106 58.1997C19.811 58.2763 19.7102 58.3518 19.613 58.4285C19.5801 58.4552 19.5309 58.4308 19.5309 58.389V34.6071C19.5309 32.3246 23.4732 28.8725 29.4135 28.8725C30.1472 28.8725 30.8901 28.9271 31.6226 29.0351C39.7848 30.2431 44.2369 36.6643 44.2369 39.6263V62.3081L44.2357 62.3093ZM72.4714 58.389C72.4714 58.432 72.4234 58.4552 72.3894 58.4285C72.2909 58.3518 72.1925 58.2763 72.0917 58.1997C69.6014 56.3574 66.4315 55.3422 63.1654 55.3422C62.0239 55.3422 60.872 55.4688 59.7399 55.7151C55.6101 56.6153 51.6925 58.6678 48.7065 61.4904C48.4088 61.7715 48.1241 62.0572 47.8534 62.3442C47.8217 62.3778 47.7655 62.3558 47.7655 62.3093V39.6274C47.7655 36.6666 52.2175 30.2443 60.3798 29.0363C61.1134 28.9282 61.8564 28.8736 62.59 28.8736C68.5303 28.8736 72.4726 32.3246 72.4726 34.6083V58.389H72.4714Z" fill="#563124"/>
</g>
<defs>
<clipPath id="clip0_451_176">
<rect width="60" height="43" fill="white" transform="translate(16 25.375)"/>
</clipPath>
</defs>
</svg>
