<svg width="92" height="93" viewBox="0 0 92 93" fill="none" xmlns="http://www.w3.org/2000/svg">
<rect x="2" y="2.375" width="88" height="88" rx="14" fill="#F7F4F4"/>
<rect x="2" y="2.375" width="88" height="88" rx="14" stroke="#563124" stroke-width="4"/>
<g clip-path="url(#clip0_451_171)">
<path d="M46.0011 42.5486C42.0756 42.5486 38.8928 45.7377 38.8928 49.6722C38.8928 53.6067 42.0756 56.7958 46.0011 56.7958C49.9266 56.7958 53.1083 53.6089 53.1083 49.6722C53.1083 45.7356 49.9266 42.5486 46.0011 42.5486Z" fill="#563124"/>
<path d="M72.3342 33.2921C71.3127 32.2642 69.8722 31.6166 68.2994 31.6166H62.1306C61.633 31.6188 61.1703 31.3233 60.9559 30.8463L59.1075 26.7358C58.1931 24.6995 56.1609 23.375 53.9056 23.375H38.0911C35.8369 23.375 33.8036 24.6995 32.8881 26.7358L31.0419 30.8463C30.8286 31.3233 30.3638 31.6188 29.8672 31.6166H23.6984C22.1267 31.6166 20.6841 32.2632 19.6603 33.2921C18.6377 34.3168 18 35.7489 18 37.3092V63.6835C18 65.2449 18.6377 66.676 19.6614 67.7017C20.6852 68.7296 22.1278 69.3772 23.6995 69.375H68.3005C69.8733 69.3772 71.3127 68.7296 72.3353 67.7017C73.3645 66.677 74.0011 65.2449 74.0011 63.6835V37.3092C74.0011 35.7489 73.3645 34.3146 72.3353 33.2911L72.3342 33.2921ZM55.1284 58.7983C52.8009 61.1355 49.5623 62.5894 46 62.5894C42.4377 62.5894 39.198 61.1366 36.8705 58.7983C34.5386 56.4665 33.0938 53.2285 33.0959 49.6722C33.0938 46.1159 34.5386 42.8811 36.8705 40.545C39.198 38.2089 42.4344 36.754 46 36.7572C49.5623 36.754 52.8009 38.2089 55.1284 40.545C57.4603 42.8811 58.9052 46.1159 58.9019 49.6722C58.9052 53.2285 57.4603 56.4665 55.1284 58.7983ZM68.528 41.8706H64.6134V37.9807H68.528V41.8706Z" fill="#563124"/>
</g>
<defs>
<clipPath id="clip0_451_171">
<rect width="56" height="46" fill="white" transform="translate(18 23.375)"/>
</clipPath>
</defs>
</svg>
